<svg width="1125" height="44" viewBox="0 0 1125 44" fill="none" xmlns="http://www.w3.org/2000/svg">
<path d="M70.0476 30.8006C68.6617 30.8006 67.3613 30.5183 66.1465 29.9537C64.9488 29.389 63.9735 28.5335 63.2207 27.3871C62.4849 26.2408 62.1171 24.8035 62.1171 23.0754C62.1171 22.083 62.2882 21.1248 62.6304 20.2009C62.9726 19.2598 63.4859 18.4214 64.1703 17.6857C64.8547 16.9499 65.7102 16.3682 66.7368 15.9404C67.7634 15.4956 68.9526 15.2731 70.3043 15.2731C70.9545 15.2731 71.6731 15.3416 72.4602 15.4785C73.2472 15.5982 73.9659 15.7864 74.6161 16.0431L74.7957 19.3539L73.8461 19.4566L73.1531 17.1467C72.828 16.89 72.3575 16.7018 71.7415 16.5821C71.1427 16.4623 70.5866 16.4024 70.0733 16.4024C68.6532 16.4024 67.4982 16.7018 66.6085 17.3007C65.7359 17.8995 65.1028 18.6866 64.7093 19.6619C64.3157 20.6201 64.119 21.6381 64.119 22.7161C64.119 24.2389 64.3842 25.5136 64.9146 26.5402C65.4621 27.5668 66.1893 28.3453 67.0961 28.8757C68.0201 29.389 69.0381 29.6457 70.1503 29.6457C70.7492 29.6457 71.2625 29.5944 71.6902 29.4917C72.118 29.3719 72.5628 29.2008 73.0248 28.9784L74.2824 26.5145L75.1807 26.6172L74.4877 29.7484C73.8547 30.0392 73.1702 30.2873 72.4345 30.4926C71.6988 30.698 70.9031 30.8006 70.0476 30.8006ZM84.7282 30.8006C83.2738 30.8006 81.9905 30.4755 80.8784 29.8253C79.7662 29.1752 78.8936 28.2683 78.2605 27.1048C77.6275 25.9242 77.3109 24.5725 77.3109 23.0497C77.3109 21.5611 77.636 20.2351 78.2862 19.0716C78.9364 17.891 79.8261 16.967 80.9554 16.2997C82.1018 15.6153 83.3936 15.2731 84.8308 15.2731C86.2168 15.2731 87.4401 15.5982 88.501 16.2484C89.5618 16.8986 90.3917 17.8054 90.9905 18.9689C91.5894 20.1153 91.8888 21.4499 91.8888 22.9727C91.8888 24.0335 91.7091 25.0345 91.3498 25.9756C91.0076 26.9166 90.52 27.755 89.8869 28.4908C89.2538 29.2094 88.501 29.774 87.6284 30.1847C86.7557 30.5953 85.789 30.8006 84.7282 30.8006ZM85.0105 29.6714C86.0029 29.6714 86.867 29.4233 87.6027 28.9271C88.3555 28.4138 88.9373 27.6951 89.3479 26.7712C89.7757 25.8472 89.9896 24.7778 89.9896 23.563C89.9896 22.1429 89.7586 20.8938 89.2966 19.8159C88.8346 18.7379 88.193 17.891 87.3717 17.275C86.5504 16.6591 85.6008 16.3511 84.5229 16.3511C82.9145 16.3511 81.6398 16.9243 80.6987 18.0706C79.7748 19.1999 79.3128 20.7398 79.3128 22.6904C79.3128 24.0421 79.5523 25.2484 80.0314 26.3092C80.5276 27.3529 81.2035 28.1742 82.059 28.7731C82.9316 29.3719 83.9154 29.6714 85.0105 29.6714ZM104.927 30.6723C104.79 30.6552 104.619 30.6381 104.413 30.621C104.225 30.6039 104.02 30.5868 103.797 30.5696C103.592 30.5696 103.387 30.5696 103.182 30.5696H94.7376L94.6863 29.7484L96.2262 29.4147C96.2433 29.3292 96.2604 29.1581 96.2776 28.9014C96.2947 28.6276 96.3032 28.2341 96.3032 27.7208C96.3203 27.1904 96.3289 26.5231 96.3289 25.7189V20.3805C96.3289 19.5592 96.3289 18.8919 96.3289 18.3786C96.3289 17.8653 96.3203 17.4718 96.3032 17.198C96.2861 16.9243 96.2604 16.7532 96.2262 16.6847L94.6863 16.3254L94.7376 15.5041H100.127L100.179 16.3767L98.0485 16.6847C98.0142 16.7361 97.9886 16.89 97.9715 17.1467C97.9544 17.3862 97.9372 17.7712 97.9201 18.3016C97.9201 18.8149 97.9201 19.5079 97.9201 20.3805V25.7189C97.9201 26.5573 97.9201 27.3273 97.9201 28.0288C97.9372 28.7132 97.9544 29.1324 97.9715 29.2864C98.1768 29.3035 98.3907 29.3206 98.6131 29.3377C98.8355 29.3377 99.0751 29.3377 99.3317 29.3377H101.796C102.172 29.3377 102.497 29.3377 102.771 29.3377C103.045 29.3206 103.336 29.2949 103.643 29.2607L104.927 26.8738L105.876 27.0792L104.927 30.6723ZM117.58 30.6723C117.443 30.6552 117.272 30.6381 117.066 30.621C116.878 30.6039 116.673 30.5868 116.45 30.5696C116.245 30.5696 116.04 30.5696 115.834 30.5696H107.391L107.339 29.7484L108.879 29.4147C108.896 29.3292 108.913 29.1581 108.931 28.9014C108.948 28.6276 108.956 28.2341 108.956 27.7208C108.973 27.1904 108.982 26.5231 108.982 25.7189V20.3805C108.982 19.5592 108.982 18.8919 108.982 18.3786C108.982 17.8653 108.973 17.4718 108.956 17.198C108.939 16.9243 108.913 16.7532 108.879 16.6847L107.339 16.3254L107.391 15.5041H112.78L112.832 16.3767L110.701 16.6847C110.667 16.7361 110.642 16.89 110.624 17.1467C110.607 17.3862 110.59 17.7712 110.573 18.3016C110.573 18.8149 110.573 19.5079 110.573 20.3805V25.7189C110.573 26.5573 110.573 27.3273 110.573 28.0288C110.59 28.7132 110.607 29.1324 110.624 29.2864C110.83 29.3035 111.044 29.3206 111.266 29.3377C111.489 29.3377 111.728 29.3377 111.985 29.3377H114.449C114.825 29.3377 115.15 29.3377 115.424 29.3377C115.698 29.3206 115.988 29.2949 116.296 29.2607L117.58 26.8738L118.529 27.0792L117.58 30.6723ZM130.695 30.698C130.164 30.6295 129.779 30.5868 129.54 30.5696C129.317 30.5696 129.086 30.5696 128.847 30.5696H120.044L119.992 29.7484L121.532 29.4147C121.549 29.3292 121.558 29.1495 121.558 28.8757C121.575 28.5849 121.584 28.1828 121.584 27.6695C121.601 27.139 121.609 26.4889 121.609 25.7189V20.3805C121.609 19.5935 121.601 18.9347 121.584 18.4043C121.584 17.8739 121.575 17.4718 121.558 17.198C121.558 16.9072 121.549 16.7275 121.532 16.6591L119.992 16.3254L120.044 15.5041H128.462C128.65 15.5041 128.821 15.5041 128.975 15.5041C129.129 15.5041 129.309 15.4956 129.514 15.4785C129.737 15.4613 130.027 15.4357 130.387 15.4015L130.823 18.6096L129.822 18.7636L129.001 16.6591C128.915 16.6419 128.787 16.6334 128.616 16.6334C128.462 16.6163 128.291 16.6077 128.103 16.6077H124.715C124.39 16.6077 124.116 16.6163 123.893 16.6334C123.671 16.6334 123.44 16.6505 123.2 16.6847C123.2 16.7361 123.192 16.9243 123.175 17.2494C123.175 17.5745 123.166 17.9423 123.149 18.353C123.149 18.7636 123.149 19.1315 123.149 19.4566V27.1305C123.149 27.37 123.149 27.6524 123.149 27.9774C123.166 28.2854 123.175 28.5677 123.175 28.8244C123.192 29.0811 123.2 29.2522 123.2 29.3377C123.406 29.3548 123.62 29.3719 123.842 29.389C124.064 29.4061 124.295 29.4147 124.535 29.4147H127.564C127.906 29.4147 128.197 29.4147 128.436 29.4147C128.693 29.3976 128.898 29.3805 129.052 29.3634C129.206 29.3463 129.317 29.3292 129.386 29.312L130.695 26.9252L131.67 27.1305L130.695 30.698ZM128.051 25.2569L127.718 23.486C127.632 23.4518 127.495 23.4261 127.307 23.409C127.136 23.3919 126.922 23.3834 126.665 23.3834H124.432C124.244 23.3834 124.013 23.3919 123.739 23.409C123.483 23.409 123.183 23.4176 122.841 23.4347V22.2284C123.183 22.2455 123.483 22.2541 123.739 22.2541C124.013 22.2541 124.244 22.2541 124.432 22.2541H126.665C126.922 22.2541 127.136 22.2541 127.307 22.2541C127.495 22.237 127.632 22.2113 127.718 22.1771L128.051 20.3549H128.975V25.2569H128.051ZM141.833 30.8006C140.448 30.8006 139.147 30.5183 137.932 29.9537C136.735 29.389 135.759 28.5335 135.006 27.3871C134.271 26.2408 133.903 24.8035 133.903 23.0754C133.903 22.083 134.074 21.1248 134.416 20.2009C134.758 19.2598 135.272 18.4214 135.956 17.6857C136.64 16.9499 137.496 16.3682 138.523 15.9404C139.549 15.4956 140.738 15.2731 142.09 15.2731C142.74 15.2731 143.459 15.3416 144.246 15.4785C145.033 15.5982 145.752 15.7864 146.402 16.0431L146.582 19.3539L145.632 19.4566L144.939 17.1467C144.614 16.89 144.143 16.7018 143.527 16.5821C142.928 16.4623 142.372 16.4024 141.859 16.4024C140.439 16.4024 139.284 16.7018 138.394 17.3007C137.522 17.8995 136.889 18.6866 136.495 19.6619C136.102 20.6201 135.905 21.6381 135.905 22.7161C135.905 24.2389 136.17 25.5136 136.7 26.5402C137.248 27.5668 137.975 28.3453 138.882 28.8757C139.806 29.389 140.824 29.6457 141.936 29.6457C142.535 29.6457 143.048 29.5944 143.476 29.4917C143.904 29.3719 144.349 29.2008 144.811 28.9784L146.068 26.5145L146.966 26.6172L146.274 29.7484C145.64 30.0392 144.956 30.2873 144.22 30.4926C143.485 30.698 142.689 30.8006 141.833 30.8006ZM160.389 15.4015L160.954 19.3796L160.03 19.5079L158.927 16.6334C158.824 16.5992 158.687 16.5821 158.516 16.5821C158.345 16.565 158.199 16.5564 158.08 16.5564H157.13C156.959 16.5564 156.702 16.5564 156.36 16.5564C156.018 16.5564 155.701 16.565 155.41 16.5821C155.41 16.7189 155.402 17.0355 155.385 17.5317C155.385 18.0279 155.385 18.5925 155.385 19.2256C155.385 19.8587 155.385 20.4575 155.385 21.0222V25.0003C155.385 26.1467 155.393 27.1219 155.41 27.9261C155.427 28.7303 155.436 29.2265 155.436 29.4147L157.566 29.697L157.515 30.5696H151.663L151.612 29.697L153.742 29.4147C153.742 29.2265 153.751 28.7303 153.768 27.9261C153.785 27.1219 153.793 26.1467 153.793 25.0003V21.0222C153.793 20.4575 153.793 19.8587 153.793 19.2256C153.793 18.5925 153.793 18.0279 153.793 17.5317C153.793 17.0355 153.785 16.7189 153.768 16.5821C153.494 16.565 153.186 16.5564 152.844 16.5564C152.502 16.5564 152.236 16.5564 152.048 16.5564H151.022C150.902 16.5564 150.765 16.565 150.611 16.5821C150.474 16.5821 150.354 16.5992 150.252 16.6334L149.122 19.5336L148.198 19.3796L148.763 15.4015C148.968 15.4186 149.148 15.4357 149.302 15.4528C149.473 15.4699 149.627 15.487 149.764 15.5041C149.918 15.5041 150.063 15.5041 150.2 15.5041C150.354 15.5041 150.525 15.5041 150.714 15.5041H158.439C158.627 15.5041 158.79 15.5041 158.927 15.5041C159.08 15.5041 159.226 15.5041 159.363 15.5041C159.5 15.487 159.645 15.4699 159.799 15.4528C159.97 15.4357 160.167 15.4186 160.389 15.4015ZM162.853 30.5696L162.802 29.7484L164.342 29.4147C164.359 29.3292 164.368 29.1495 164.368 28.8757C164.385 28.5849 164.393 28.1828 164.393 27.6695C164.41 27.1562 164.419 26.506 164.419 25.7189V20.3805C164.419 19.5763 164.41 18.9176 164.393 18.4043C164.393 17.8739 164.385 17.4718 164.368 17.198C164.368 16.9072 164.359 16.7275 164.342 16.6591L162.802 16.3254L162.853 15.5041H167.601L167.653 16.3254L166.113 16.6591C166.096 16.7104 166.07 16.8558 166.036 17.0954C166.019 17.3349 166.002 17.7113 165.984 18.2246C165.984 18.7379 165.984 19.4566 165.984 20.3805V25.7189C165.984 26.6086 165.984 27.3187 165.984 27.8491C166.002 28.3624 166.019 28.7389 166.036 28.9784C166.07 29.2008 166.096 29.3463 166.113 29.4147L167.653 29.7484L167.601 30.5696H162.853ZM177.816 30.8006C176.362 30.8006 175.079 30.4755 173.966 29.8253C172.854 29.1752 171.982 28.2683 171.349 27.1048C170.715 25.9242 170.399 24.5725 170.399 23.0497C170.399 21.5611 170.724 20.2351 171.374 19.0716C172.024 17.891 172.914 16.967 174.043 16.2997C175.19 15.6153 176.482 15.2731 177.919 15.2731C179.305 15.2731 180.528 15.5982 181.589 16.2484C182.65 16.8986 183.48 17.8054 184.078 18.9689C184.677 20.1153 184.977 21.4499 184.977 22.9727C184.977 24.0335 184.797 25.0345 184.438 25.9756C184.096 26.9166 183.608 27.755 182.975 28.4908C182.342 29.2094 181.589 29.774 180.716 30.1847C179.844 30.5953 178.877 30.8006 177.816 30.8006ZM178.098 29.6714C179.091 29.6714 179.955 29.4233 180.691 28.9271C181.444 28.4138 182.025 27.6951 182.436 26.7712C182.864 25.8472 183.078 24.7778 183.078 23.563C183.078 22.1429 182.847 20.8938 182.385 19.8159C181.923 18.7379 181.281 17.891 180.46 17.275C179.638 16.6591 178.689 16.3511 177.611 16.3511C176.002 16.3511 174.728 16.9243 173.787 18.0706C172.863 19.1999 172.401 20.7398 172.401 22.6904C172.401 24.0421 172.64 25.2484 173.119 26.3092C173.616 27.3529 174.291 28.1742 175.147 28.7731C176.02 29.3719 177.003 29.6714 178.098 29.6714ZM199.221 27.4641V20.7912C199.221 19.6961 199.212 18.8663 199.195 18.3016C199.178 17.7199 199.161 17.3092 199.144 17.0697C199.127 16.8302 199.11 16.6933 199.093 16.6591L197.373 16.3254L197.424 15.5041H202.044L202.096 16.3254L200.556 16.6591C200.556 16.6933 200.538 16.8302 200.504 17.0697C200.487 17.3092 200.47 17.7199 200.453 18.3016C200.436 18.8834 200.427 19.7132 200.427 20.7912V27.4898C200.427 27.9176 200.427 28.4052 200.427 28.9527C200.427 29.5003 200.436 30.0734 200.453 30.6723H199.529L190.469 17.5573H190.649V25.3339C190.649 26.3948 190.657 27.216 190.674 27.7978C190.709 28.3624 190.734 28.7645 190.751 29.0041C190.786 29.2265 190.803 29.3634 190.803 29.4147L192.522 29.7484L192.471 30.5696H187.8L187.749 29.7484L189.289 29.4147C189.306 29.3634 189.323 29.235 189.34 29.0297C189.357 28.8073 189.374 28.4138 189.391 27.8491C189.408 27.2674 189.417 26.429 189.417 25.3339V20.4575C189.417 19.5507 189.408 18.8492 189.391 18.353C189.391 17.8568 189.383 17.4889 189.366 17.2494C189.348 16.9927 189.323 16.7959 189.289 16.6591L187.749 16.3254L187.8 15.5041H191.059L199.401 27.4641H199.221ZM209.153 30.8006C208.401 30.8006 207.639 30.7151 206.869 30.544C206.116 30.3558 205.518 30.1333 205.073 29.8767L204.919 26.7968L205.766 26.6942L206.407 28.7987C206.852 29.0725 207.331 29.2949 207.845 29.466C208.358 29.62 208.931 29.697 209.564 29.697C210.437 29.697 211.155 29.4746 211.72 29.0297C212.285 28.5849 212.567 27.9689 212.567 27.1818C212.567 26.5659 212.379 26.0526 212.002 25.6419C211.643 25.2313 211.172 24.8719 210.591 24.564C210.026 24.2389 209.419 23.9309 208.768 23.64C208.135 23.332 207.528 22.9898 206.946 22.6134C206.382 22.237 205.911 21.7836 205.535 21.2531C205.175 20.7227 204.996 20.064 204.996 19.2769C204.996 18.4898 205.21 17.7969 205.637 17.198C206.082 16.5821 206.681 16.103 207.434 15.7608C208.204 15.4186 209.076 15.2475 210.052 15.2475C210.531 15.2475 210.967 15.2731 211.361 15.3245C211.754 15.3587 212.114 15.4186 212.439 15.5041C212.781 15.5897 213.089 15.6923 213.363 15.8121L213.517 18.7379L212.67 18.8406L212.002 16.8644C211.472 16.488 210.728 16.2997 209.769 16.2997C208.828 16.2997 208.076 16.5307 207.511 16.9927C206.946 17.4547 206.664 18.045 206.664 18.7636C206.664 19.3967 206.844 19.9357 207.203 20.3805C207.579 20.8254 208.05 21.2104 208.614 21.5355C209.196 21.8606 209.812 22.1771 210.462 22.4851C211.113 22.776 211.72 23.1096 212.285 23.486C212.866 23.8453 213.337 24.2816 213.696 24.795C214.073 25.3083 214.261 25.9413 214.261 26.6942C214.261 27.4813 214.038 28.1828 213.594 28.7987C213.149 29.4147 212.541 29.9023 211.771 30.2617C211.001 30.621 210.129 30.8006 209.153 30.8006Z" fill="black"/>
<path d="M314.971 30.5696L314.919 29.7484L316.177 29.4147L321.464 15.7864L322.645 15.0421L328.086 29.4147L329.343 29.7484L329.292 30.5696H324.903L324.852 29.7484L326.392 29.4147L324.826 25.3596L324.544 24.6153L321.618 17.198L322.157 16.6077L319.205 24.641L318.923 25.4109L317.486 29.4147L319.026 29.7484L318.974 30.5696H314.971ZM318.333 25.6419V24.4613C318.658 24.4784 319.137 24.4955 319.77 24.5126C320.403 24.5297 321.165 24.5383 322.054 24.5383C322.927 24.5383 323.68 24.5297 324.313 24.5126C324.946 24.4955 325.416 24.4784 325.724 24.4613V25.6419C325.006 25.6248 324.33 25.6162 323.697 25.6162C323.064 25.5991 322.516 25.5906 322.054 25.5906C321.609 25.5906 321.079 25.5991 320.463 25.6162C319.847 25.6162 319.137 25.6248 318.333 25.6419ZM332.32 29.4147C332.355 29.2778 332.389 28.8843 332.423 28.2341C332.457 27.5839 332.474 26.7455 332.474 25.7189V20.3805C332.474 19.2341 332.457 18.3359 332.423 17.6857C332.389 17.0355 332.355 16.6591 332.32 16.5564L330.78 16.3767L330.832 15.5041H336.375C337.967 15.5041 339.19 15.8207 340.046 16.4537C340.918 17.0697 341.355 17.9594 341.355 19.1229C341.355 20.064 340.995 20.8596 340.277 21.5098C339.575 22.16 338.668 22.5364 337.556 22.6391L337.043 22.4594C338.702 22.4936 339.96 22.8444 340.816 23.5117C341.688 24.1619 342.125 25.0773 342.125 26.2579C342.125 27.5582 341.551 28.602 340.405 29.389C339.276 30.1761 337.77 30.5696 335.888 30.5696H330.832L330.78 29.7484L332.32 29.4147ZM334.014 26.0269C334.014 26.814 334.023 27.5326 334.04 28.1828C334.057 28.833 334.074 29.2265 334.091 29.3634C334.314 29.3976 334.63 29.4404 335.041 29.4917C335.452 29.5259 335.76 29.543 335.965 29.543C337.488 29.543 338.617 29.2949 339.353 28.7987C340.088 28.3025 340.456 27.5326 340.456 26.4889C340.456 25.4451 340.071 24.6581 339.301 24.1277C338.531 23.5972 337.394 23.332 335.888 23.332C335.049 23.332 334.502 23.332 334.245 23.332C333.989 23.332 333.783 23.3491 333.629 23.3834V22.2284C334.006 22.2455 334.356 22.2626 334.682 22.2798C335.024 22.2969 335.392 22.3054 335.785 22.3054C337.017 22.3054 337.975 22.0488 338.66 21.5355C339.344 21.005 339.686 20.2693 339.686 19.3282C339.686 18.3872 339.37 17.6771 338.737 17.198C338.121 16.7189 337.257 16.4794 336.144 16.4794H334.066C334.049 16.5992 334.031 17.0013 334.014 17.6857C334.014 18.3701 334.014 19.1144 334.014 19.9185V26.0269ZM352.211 30.8006C350.757 30.8006 349.473 30.4755 348.361 29.8253C347.249 29.1752 346.376 28.2683 345.743 27.1048C345.11 25.9242 344.794 24.5725 344.794 23.0497C344.794 21.5611 345.119 20.2351 345.769 19.0716C346.419 17.891 347.309 16.967 348.438 16.2997C349.585 15.6153 350.876 15.2731 352.314 15.2731C353.7 15.2731 354.923 15.5982 355.984 16.2484C357.045 16.8986 357.874 17.8054 358.473 18.9689C359.072 20.1153 359.372 21.4499 359.372 22.9727C359.372 24.0335 359.192 25.0345 358.833 25.9756C358.49 26.9166 358.003 27.755 357.37 28.4908C356.737 29.2094 355.984 29.774 355.111 30.1847C354.239 30.5953 353.272 30.8006 352.211 30.8006ZM352.493 29.6714C353.486 29.6714 354.35 29.4233 355.085 28.9271C355.838 28.4138 356.42 27.6951 356.831 26.7712C357.258 25.8472 357.472 24.7778 357.472 23.563C357.472 22.1429 357.241 20.8938 356.779 19.8159C356.317 18.7379 355.676 17.891 354.854 17.275C354.033 16.6591 353.084 16.3511 352.006 16.3511C350.397 16.3511 349.123 16.9243 348.182 18.0706C347.258 19.1999 346.796 20.7398 346.796 22.6904C346.796 24.0421 347.035 25.2484 347.514 26.3092C348.01 27.3529 348.686 28.1742 349.542 28.7731C350.414 29.3719 351.398 29.6714 352.493 29.6714ZM362.118 15.5041H366.892L366.943 16.3254L365.403 16.6847C365.403 16.7018 365.394 16.8045 365.377 16.9927C365.36 17.1638 365.343 17.506 365.326 18.0193C365.326 18.5326 365.326 19.3197 365.326 20.3805V24.9489C365.343 26.0611 365.531 26.9508 365.891 27.6181C366.25 28.2683 366.738 28.7389 367.353 29.0297C367.987 29.3035 368.688 29.4404 369.458 29.4404C370.194 29.4404 370.844 29.2949 371.409 29.0041C371.99 28.6961 372.444 28.1999 372.769 27.5155C373.111 26.814 373.282 25.8814 373.282 24.718V20.8425C373.282 20.141 373.274 19.5079 373.256 18.9433C373.256 18.3786 373.248 17.8995 373.231 17.506C373.214 17.1125 373.188 16.8387 373.154 16.6847L371.357 16.3254L371.409 15.5041H376.054L376.131 16.3254L374.591 16.6847C374.591 16.7361 374.583 16.8644 374.565 17.0697C374.565 17.275 374.557 17.6686 374.54 18.2503C374.54 18.8149 374.54 19.679 374.54 20.8425V24.6923C374.54 26.1638 374.3 27.3529 373.821 28.2598C373.359 29.1495 372.726 29.7997 371.922 30.2103C371.135 30.6039 370.262 30.8006 369.304 30.8006C367.576 30.8006 366.207 30.313 365.198 29.3377C364.205 28.3453 363.709 26.9679 363.709 25.2056V20.3805C363.709 19.3368 363.7 18.5668 363.683 18.0706C363.666 17.5573 363.649 17.2151 363.632 17.044C363.632 16.8558 363.623 16.7361 363.606 16.6847L362.066 16.3254L362.118 15.5041ZM390.067 15.4015L390.632 19.3796L389.708 19.5079L388.604 16.6334C388.502 16.5992 388.365 16.5821 388.194 16.5821C388.023 16.565 387.877 16.5564 387.757 16.5564H386.808C386.637 16.5564 386.38 16.5564 386.038 16.5564C385.696 16.5564 385.379 16.565 385.088 16.5821C385.088 16.7189 385.08 17.0355 385.063 17.5317C385.063 18.0279 385.063 18.5925 385.063 19.2256C385.063 19.8587 385.063 20.4575 385.063 21.0222V25.0003C385.063 26.1467 385.071 27.1219 385.088 27.9261C385.105 28.7303 385.114 29.2265 385.114 29.4147L387.244 29.697L387.193 30.5696H381.341L381.29 29.697L383.42 29.4147C383.42 29.2265 383.428 28.7303 383.446 27.9261C383.463 27.1219 383.471 26.1467 383.471 25.0003V21.0222C383.471 20.4575 383.471 19.8587 383.471 19.2256C383.471 18.5925 383.471 18.0279 383.471 17.5317C383.471 17.0355 383.463 16.7189 383.446 16.5821C383.172 16.565 382.864 16.5564 382.522 16.5564C382.179 16.5564 381.914 16.5564 381.726 16.5564H380.699C380.58 16.5564 380.443 16.565 380.289 16.5821C380.152 16.5821 380.032 16.5992 379.929 16.6334L378.8 19.5336L377.876 19.3796L378.441 15.4015C378.646 15.4186 378.826 15.4357 378.98 15.4528C379.151 15.4699 379.305 15.487 379.442 15.5041C379.596 15.5041 379.741 15.5041 379.878 15.5041C380.032 15.5041 380.203 15.5041 380.391 15.5041H388.117C388.305 15.5041 388.467 15.5041 388.604 15.5041C388.758 15.5041 388.904 15.5041 389.041 15.5041C389.178 15.487 389.323 15.4699 389.477 15.4528C389.648 15.4357 389.845 15.4186 390.067 15.4015Z" fill="black"/>
<path d="M493.813 8.00964L503.193 33.0696H499.763L492.238 12.0346L484.783 33.0696H481.633L490.873 10.8446L491.503 8.49964L493.813 8.00964ZM498.433 23.2696V24.8446L487.233 25.1946V22.9196L498.433 23.2696ZM506.868 8.56964H510.018L509.843 24.3196L510.018 33.0696H506.868L507.043 15.5696L506.868 8.56964ZM509.493 33.0696V30.9696L513.693 31.1446L523.493 30.2696V33.0696H509.493ZM537.313 33.0696H534.163L534.338 17.3196L534.163 8.56964H537.313L537.138 17.3196L537.313 33.0696ZM534.688 8.56964V10.8446L532.238 10.6696L525.588 11.3696V8.56964H534.688ZM536.788 8.56964H545.888V11.3696L539.238 10.6696L536.788 10.8446V8.56964ZM561.451 21.6946L556.551 21.5196H552.351V19.4196H556.551L561.451 19.2446V21.6946ZM549.726 8.56964H552.876L552.701 24.3196L552.876 33.0696H549.726L549.901 15.5696L549.726 8.56964ZM552.701 8.56964H565.301V11.3696L555.851 10.6696L552.701 10.8446V8.56964ZM552.701 33.0696V30.7946L555.851 30.9696L566.351 30.2696V33.0696H552.701ZM571.031 23.2696L570.891 8.56964H577.786C579.606 8.56964 581.088 8.80297 582.231 9.26964C583.398 9.73631 584.308 10.3313 584.961 11.0546C585.614 11.778 586.058 12.5363 586.291 13.3296C586.548 14.123 586.676 14.858 586.676 15.5346C586.676 16.748 586.431 17.833 585.941 18.7896C585.474 19.7463 584.821 20.563 583.981 21.2396C583.141 21.893 582.149 22.3946 581.006 22.7446C579.886 23.0946 578.673 23.2696 577.366 23.2696H571.031ZM570.716 33.0696L571.101 19.4546L573.761 21.3096L574.286 33.0696H570.716ZM583.631 33.0696L578.381 22.0096L581.566 22.0796L587.341 33.0696H583.631ZM577.366 21.1696C578.299 21.193 579.128 21.1113 579.851 20.9246C580.598 20.738 581.228 20.4346 581.741 20.0146C582.278 19.5946 582.674 19.0696 582.931 18.4396C583.211 17.7863 583.351 17.028 583.351 16.1646C583.351 15.418 583.234 14.718 583.001 14.0646C582.791 13.388 582.441 12.793 581.951 12.2796C581.484 11.7663 580.866 11.3696 580.096 11.0896C579.326 10.7863 578.393 10.6463 577.296 10.6696L574.006 10.7396L573.901 21.0646L577.366 21.1696ZM613.575 21.6946L608.675 21.5196H604.475V19.4196H608.675L613.575 19.2446V21.6946ZM601.85 8.56964H605L604.825 24.3196L605 33.0696H601.85L602.025 15.5696L601.85 8.56964ZM604.825 8.56964H617.425V11.3696L607.975 10.6696L604.825 10.8446V8.56964ZM604.825 33.0696V30.7946L607.975 30.9696L618.475 30.2696V33.0696H604.825ZM632.254 33.4196C630.877 33.4196 629.5 33.1396 628.124 32.5796C626.747 31.9963 625.487 31.1796 624.344 30.1296C623.2 29.0563 622.279 27.773 621.579 26.2796C620.902 24.763 620.564 23.0596 620.564 21.1696C620.564 19.583 620.82 18.1246 621.334 16.7946C621.87 15.4413 622.582 14.2396 623.469 13.1896C624.355 12.1396 625.359 11.253 626.479 10.5296C627.599 9.78297 628.765 9.22297 629.979 8.84964C631.215 8.45297 632.417 8.25464 633.584 8.25464C634.61 8.25464 635.66 8.39464 636.734 8.67464C637.807 8.93131 638.985 9.40964 640.269 10.1096L639.569 13.3296C638.425 12.583 637.247 12.023 636.034 11.6496C634.82 11.2763 633.63 11.0896 632.464 11.0896C631.274 11.0896 630.142 11.288 629.069 11.6846C628.019 12.0813 627.085 12.6646 626.269 13.4346C625.452 14.2046 624.81 15.173 624.344 16.3396C623.9 17.483 623.679 18.813 623.679 20.3296C623.679 22.0796 623.959 23.608 624.519 24.9146C625.102 26.198 625.872 27.2713 626.829 28.1346C627.785 28.9746 628.835 29.6046 629.979 30.0246C631.122 30.4446 632.265 30.6546 633.409 30.6546C634.575 30.6546 635.742 30.4563 636.909 30.0596C638.099 29.6396 639.277 29.103 640.444 28.4496L641.319 29.8496C639.895 31.063 638.402 31.9613 636.839 32.5446C635.299 33.128 633.77 33.4196 632.254 33.4196ZM638.414 29.9196L638.064 21.5196H641.214L641.039 24.3196L641.319 29.8496L638.414 29.9196ZM657.905 8.21964C659.445 8.21964 660.927 8.54631 662.35 9.19964C663.773 9.82964 665.045 10.7163 666.165 11.8596C667.308 13.003 668.207 14.333 668.86 15.8496C669.513 17.3663 669.84 18.9996 669.84 20.7496C669.84 22.663 669.467 24.4013 668.72 25.9646C667.973 27.5046 666.97 28.8346 665.71 29.9546C664.473 31.0746 663.108 31.938 661.615 32.5446C660.122 33.128 658.617 33.4196 657.1 33.4196C655.467 33.4196 653.927 33.1046 652.48 32.4746C651.057 31.8213 649.797 30.923 648.7 29.7796C647.603 28.6363 646.74 27.3063 646.11 25.7896C645.48 24.2496 645.165 22.593 645.165 20.8196C645.165 18.9296 645.538 17.2146 646.285 15.6746C647.032 14.1346 648.023 12.8046 649.26 11.6846C650.52 10.5646 651.897 9.71297 653.39 9.12964C654.907 8.52297 656.412 8.21964 657.905 8.21964ZM648.28 19.9796C648.28 21.7763 648.572 23.3513 649.155 24.7046C649.762 26.058 650.543 27.1896 651.5 28.0996C652.48 29.0096 653.518 29.698 654.615 30.1646C655.735 30.608 656.82 30.8296 657.87 30.8296C658.897 30.8296 659.923 30.6663 660.95 30.3396C662 29.9896 662.957 29.453 663.82 28.7296C664.683 27.983 665.383 27.0263 665.92 25.8596C666.457 24.693 666.725 23.293 666.725 21.6596C666.725 19.863 666.433 18.288 665.85 16.9346C665.29 15.5813 664.543 14.4496 663.61 13.5396C662.677 12.6296 661.638 11.953 660.495 11.5096C659.352 11.043 658.22 10.8096 657.1 10.8096C656.097 10.8096 655.07 10.9846 654.02 11.3346C652.993 11.6613 652.037 12.198 651.15 12.9446C650.287 13.668 649.587 14.613 649.05 15.7796C648.537 16.9463 648.28 18.3463 648.28 19.9796Z" fill="black"/>
<path d="M768.951 30.8006C767.565 30.8006 766.264 30.5183 765.05 29.9537C763.852 29.389 762.877 28.5335 762.124 27.3871C761.388 26.2408 761.02 24.8035 761.02 23.0754C761.02 22.083 761.191 21.1248 761.533 20.2009C761.876 19.2598 762.389 18.4214 763.073 17.6857C763.758 16.9499 764.613 16.3682 765.64 15.9404C766.667 15.4956 767.856 15.2731 769.207 15.2731C769.858 15.2731 770.576 15.3416 771.363 15.4785C772.15 15.5982 772.869 15.7864 773.519 16.0431L773.699 19.3539L772.749 19.4566L772.056 17.1467C771.731 16.89 771.261 16.7018 770.645 16.5821C770.046 16.4623 769.49 16.4024 768.976 16.4024C767.556 16.4024 766.401 16.7018 765.512 17.3007C764.639 17.8995 764.006 18.6866 763.612 19.6619C763.219 20.6201 763.022 21.6381 763.022 22.7161C763.022 24.2389 763.287 25.5136 763.818 26.5402C764.365 27.5668 765.092 28.3453 765.999 28.8757C766.923 29.389 767.941 29.6457 769.053 29.6457C769.652 29.6457 770.166 29.5944 770.593 29.4917C771.021 29.3719 771.466 29.2008 771.928 28.9784L773.185 26.5145L774.084 26.6172L773.391 29.7484C772.758 30.0392 772.073 30.2873 771.338 30.4926C770.602 30.698 769.806 30.8006 768.951 30.8006ZM774.725 30.5696L774.674 29.7484L775.932 29.4147L781.219 15.7864L782.399 15.0421L787.84 29.4147L789.098 29.7484L789.047 30.5696H784.658L784.607 29.7484L786.146 29.4147L784.581 25.3596L784.299 24.6153L781.373 17.198L781.912 16.6077L778.96 24.641L778.678 25.4109L777.241 29.4147L778.781 29.7484L778.729 30.5696H774.725ZM778.088 25.6419V24.4613C778.413 24.4784 778.892 24.4955 779.525 24.5126C780.158 24.5297 780.919 24.5383 781.809 24.5383C782.682 24.5383 783.434 24.5297 784.068 24.5126C784.701 24.4955 785.171 24.4784 785.479 24.4613V25.6419C784.761 25.6248 784.085 25.6162 783.452 25.6162C782.819 25.5991 782.271 25.5906 781.809 25.5906C781.364 25.5906 780.834 25.5991 780.218 25.6162C779.602 25.6162 778.892 25.6248 778.088 25.6419ZM790.792 15.5041H794.744L800.16 28.2598H799.852L805.37 15.5041H808.937L808.989 16.3254L807.449 16.6334C807.432 16.9414 807.423 17.4547 807.423 18.1733C807.423 18.8919 807.432 19.5763 807.449 20.2265L807.5 25.0003C807.517 25.9242 807.526 26.6771 807.526 27.2588C807.543 27.8235 807.56 28.2769 807.577 28.6191C807.594 28.9442 807.603 29.2179 807.603 29.4404L809.143 29.7484L809.091 30.5696H804.394L804.343 29.7484L805.857 29.4404C805.874 29.1495 805.883 28.8843 805.883 28.6447C805.883 28.3881 805.883 28.0288 805.883 27.5668C805.883 27.1048 805.874 26.4375 805.857 25.5649L805.806 16.2484H806.217L799.954 30.6466H799.415L793.281 16.1971H793.512V24.8719C793.512 26.3605 793.512 27.447 793.512 28.1314C793.529 28.7987 793.547 29.2265 793.564 29.4147L795.283 29.7484L795.232 30.5696H790.458L790.407 29.7484L792.126 29.4147C792.144 29.2778 792.152 29.0554 792.152 28.7474C792.169 28.4394 792.186 28.0117 792.203 27.4641C792.221 26.9166 792.229 26.2151 792.229 25.3596L792.306 20.2009C792.323 19.5849 792.323 18.9347 792.306 18.2503C792.306 17.5488 792.298 17.0184 792.28 16.6591L790.741 16.3254L790.792 15.5041ZM812.094 30.5696L812.043 29.7484L813.506 29.4147C813.523 29.3463 813.531 29.2265 813.531 29.0554C813.548 28.8672 813.557 28.5335 813.557 28.0544C813.574 27.5582 813.583 26.8225 813.583 25.8472L813.608 20.1239C813.608 19.1828 813.6 18.4813 813.583 18.0193C813.566 17.5402 813.548 17.2151 813.531 17.044C813.531 16.8729 813.523 16.7703 813.506 16.7361L811.966 16.3254L812.017 15.5041H816.97C818.476 15.5041 819.674 15.8805 820.564 16.6334C821.47 17.3691 821.924 18.43 821.924 19.8159C821.924 20.7741 821.676 21.5953 821.18 22.2798C820.7 22.9471 820.076 23.4604 819.306 23.8197C818.536 24.179 817.723 24.3586 816.868 24.3586C816.44 24.3586 816.047 24.3415 815.687 24.3073C815.345 24.256 815.028 24.2047 814.738 24.1533V22.9727C815.2 23.0925 815.585 23.178 815.893 23.2294C816.2 23.2636 816.491 23.2807 816.765 23.2807C817.86 23.2807 818.716 23.0326 819.332 22.5364C819.965 22.0402 820.281 21.236 820.281 20.1239C820.281 18.8748 819.948 17.9594 819.28 17.3777C818.613 16.7788 817.8 16.4794 816.842 16.4794H815.174C815.174 16.5821 815.165 16.8302 815.148 17.2237C815.148 17.6001 815.14 18.0535 815.123 18.584C815.123 19.0973 815.123 19.6106 815.123 20.1239L815.148 25.8472C815.148 26.8225 815.148 27.5497 815.148 28.0288C815.165 28.4908 815.182 28.8073 815.2 28.9784C815.217 29.1495 815.225 29.2778 815.225 29.3634L817.381 29.697L817.33 30.5696H812.094ZM824.593 30.5696L824.542 29.7484L826.082 29.4147C826.099 29.3292 826.107 29.1495 826.107 28.8757C826.124 28.5849 826.133 28.1828 826.133 27.6695C826.15 27.1562 826.159 26.506 826.159 25.7189V20.3805C826.159 19.5763 826.15 18.9176 826.133 18.4043C826.133 17.8739 826.124 17.4718 826.107 17.198C826.107 16.9072 826.099 16.7275 826.082 16.6591L824.542 16.3254L824.593 15.5041H829.341L829.392 16.3254L827.853 16.6591C827.835 16.7104 827.81 16.8558 827.776 17.0954C827.758 17.3349 827.741 17.7113 827.724 18.2246C827.724 18.7379 827.724 19.4566 827.724 20.3805V25.7189C827.724 26.6086 827.724 27.3187 827.724 27.8491C827.741 28.3624 827.758 28.7389 827.776 28.9784C827.81 29.2008 827.835 29.3463 827.853 29.4147L829.392 29.7484L829.341 30.5696H824.593ZM840.403 30.8006C838.897 30.8006 837.511 30.5183 836.245 29.9537C834.996 29.389 833.995 28.5335 833.242 27.3871C832.507 26.2408 832.139 24.8035 832.139 23.0754C832.139 22.083 832.31 21.1248 832.652 20.2009C833.011 19.2769 833.533 18.4471 834.218 17.7113C834.919 16.9585 835.783 16.3682 836.81 15.9404C837.853 15.4956 839.06 15.2731 840.429 15.2731C841.096 15.2731 841.832 15.3416 842.636 15.4785C843.44 15.5982 844.15 15.7864 844.766 16.0431L844.971 19.2513L844.047 19.3796L843.329 17.1467C843.021 16.89 842.559 16.7018 841.943 16.5821C841.344 16.4623 840.771 16.4024 840.223 16.4024C838.752 16.4024 837.571 16.7018 836.681 17.3007C835.792 17.8995 835.141 18.6866 834.731 19.6619C834.337 20.6201 834.141 21.6381 834.141 22.7161C834.141 24.2389 834.414 25.5221 834.962 26.5659C835.526 27.5925 836.288 28.371 837.246 28.9014C838.204 29.4147 839.291 29.6714 840.506 29.6714C841.104 29.6714 841.763 29.5858 842.482 29.4147C843.2 29.2265 843.833 28.9271 844.381 28.5164L843.688 29.9793V27.2845C843.688 26.6343 843.679 26.0868 843.662 25.6419C843.645 25.197 843.62 24.8634 843.585 24.641L841.891 24.41L841.943 23.5374H846.255L846.306 24.3586L845.228 24.6153C845.228 24.6837 845.228 24.8719 845.228 25.1799C845.228 25.4708 845.228 25.8643 845.228 26.3605C845.228 27.1305 845.236 27.7379 845.254 28.1828C845.271 28.6105 845.288 29.0126 845.305 29.389C844.672 29.8168 843.893 30.159 842.969 30.4156C842.045 30.6723 841.19 30.8006 840.403 30.8006ZM860.088 27.4641V20.7912C860.088 19.6961 860.08 18.8663 860.062 18.3016C860.045 17.7199 860.028 17.3092 860.011 17.0697C859.994 16.8302 859.977 16.6933 859.96 16.6591L858.24 16.3254L858.292 15.5041H862.911L862.963 16.3254L861.423 16.6591C861.423 16.6933 861.406 16.8302 861.371 17.0697C861.354 17.3092 861.337 17.7199 861.32 18.3016C861.303 18.8834 861.294 19.7132 861.294 20.7912V27.4898C861.294 27.9176 861.294 28.4052 861.294 28.9527C861.294 29.5003 861.303 30.0734 861.32 30.6723H860.396L851.336 17.5573H851.516V25.3339C851.516 26.3948 851.524 27.216 851.542 27.7978C851.576 28.3624 851.601 28.7645 851.619 29.0041C851.653 29.2265 851.67 29.3634 851.67 29.4147L853.389 29.7484L853.338 30.5696H848.667L848.616 29.7484L850.156 29.4147C850.173 29.3634 850.19 29.235 850.207 29.0297C850.224 28.8073 850.241 28.4138 850.258 27.8491C850.275 27.2674 850.284 26.429 850.284 25.3339V20.4575C850.284 19.5507 850.275 18.8492 850.258 18.353C850.258 17.8568 850.25 17.4889 850.233 17.2494C850.216 16.9927 850.19 16.7959 850.156 16.6591L848.616 16.3254L848.667 15.5041H851.927L860.268 27.4641H860.088Z" fill="black"/>
<path d="M964.409 30.8006C963.024 30.8006 961.723 30.5183 960.508 29.9537C959.311 29.389 958.335 28.5335 957.582 27.3871C956.847 26.2408 956.479 24.8035 956.479 23.0754C956.479 22.083 956.65 21.1248 956.992 20.2009C957.334 19.2598 957.848 18.4214 958.532 17.6857C959.217 16.9499 960.072 16.3682 961.099 15.9404C962.125 15.4956 963.314 15.2731 964.666 15.2731C965.316 15.2731 966.035 15.3416 966.822 15.4785C967.609 15.5982 968.328 15.7864 968.978 16.0431L969.158 19.3539L968.208 19.4566L967.515 17.1467C967.19 16.89 966.719 16.7018 966.103 16.5821C965.505 16.4623 964.948 16.4024 964.435 16.4024C963.015 16.4024 961.86 16.7018 960.97 17.3007C960.098 17.8995 959.465 18.6866 959.071 19.6619C958.678 20.6201 958.481 21.6381 958.481 22.7161C958.481 24.2389 958.746 25.5136 959.276 26.5402C959.824 27.5668 960.551 28.3453 961.458 28.8757C962.382 29.389 963.4 29.6457 964.512 29.6457C965.111 29.6457 965.624 29.5944 966.052 29.4917C966.48 29.3719 966.925 29.2008 967.387 28.9784L968.644 26.5145L969.543 26.6172L968.85 29.7484C968.216 30.0392 967.532 30.2873 966.796 30.4926C966.061 30.698 965.265 30.8006 964.409 30.8006ZM979.09 30.8006C977.636 30.8006 976.352 30.4755 975.24 29.8253C974.128 29.1752 973.255 28.2683 972.622 27.1048C971.989 25.9242 971.673 24.5725 971.673 23.0497C971.673 21.5611 971.998 20.2351 972.648 19.0716C973.298 17.891 974.188 16.967 975.317 16.2997C976.464 15.6153 977.755 15.2731 979.193 15.2731C980.579 15.2731 981.802 15.5982 982.863 16.2484C983.924 16.8986 984.753 17.8054 985.352 18.9689C985.951 20.1153 986.251 21.4499 986.251 22.9727C986.251 24.0335 986.071 25.0345 985.712 25.9756C985.369 26.9166 984.882 27.755 984.249 28.4908C983.616 29.2094 982.863 29.774 981.99 30.1847C981.118 30.5953 980.151 30.8006 979.09 30.8006ZM979.372 29.6714C980.365 29.6714 981.229 29.4233 981.965 28.9271C982.717 28.4138 983.299 27.6951 983.71 26.7712C984.138 25.8472 984.351 24.7778 984.351 23.563C984.351 22.1429 984.12 20.8938 983.658 19.8159C983.196 18.7379 982.555 17.891 981.734 17.275C980.912 16.6591 979.963 16.3511 978.885 16.3511C977.276 16.3511 976.002 16.9243 975.061 18.0706C974.137 19.1999 973.675 20.7398 973.675 22.6904C973.675 24.0421 973.914 25.2484 974.393 26.3092C974.889 27.3529 975.565 28.1742 976.421 28.7731C977.293 29.3719 978.277 29.6714 979.372 29.6714ZM1000.49 27.4641V20.7912C1000.49 19.6961 1000.49 18.8663 1000.47 18.3016C1000.45 17.7199 1000.43 17.3092 1000.42 17.0697C1000.4 16.8302 1000.38 16.6933 1000.37 16.6591L998.647 16.3254L998.698 15.5041H1003.32L1003.37 16.3254L1001.83 16.6591C1001.83 16.6933 1001.81 16.8302 1001.78 17.0697C1001.76 17.3092 1001.74 17.7199 1001.73 18.3016C1001.71 18.8834 1001.7 19.7132 1001.7 20.7912V27.4898C1001.7 27.9176 1001.7 28.4052 1001.7 28.9527C1001.7 29.5003 1001.71 30.0734 1001.73 30.6723H1000.8L991.743 17.5573H991.923V25.3339C991.923 26.3948 991.931 27.216 991.948 27.7978C991.983 28.3624 992.008 28.7645 992.025 29.0041C992.06 29.2265 992.077 29.3634 992.077 29.4147L993.796 29.7484L993.745 30.5696H989.074L989.022 29.7484L990.562 29.4147C990.579 29.3634 990.597 29.235 990.614 29.0297C990.631 28.8073 990.648 28.4138 990.665 27.8491C990.682 27.2674 990.691 26.429 990.691 25.3339V20.4575C990.691 19.5507 990.682 18.8492 990.665 18.353C990.665 17.8568 990.656 17.4889 990.639 17.2494C990.622 16.9927 990.597 16.7959 990.562 16.6591L989.022 16.3254L989.074 15.5041H992.333L1000.67 27.4641H1000.49ZM1017.36 15.4015L1017.92 19.3796L1017 19.5079L1015.89 16.6334C1015.79 16.5992 1015.65 16.5821 1015.48 16.5821C1015.31 16.565 1015.17 16.5564 1015.05 16.5564H1014.1C1013.93 16.5564 1013.67 16.5564 1013.33 16.5564C1012.99 16.5564 1012.67 16.565 1012.38 16.5821C1012.38 16.7189 1012.37 17.0355 1012.35 17.5317C1012.35 18.0279 1012.35 18.5925 1012.35 19.2256C1012.35 19.8587 1012.35 20.4575 1012.35 21.0222V25.0003C1012.35 26.1467 1012.36 27.1219 1012.38 27.9261C1012.39 28.7303 1012.4 29.2265 1012.4 29.4147L1014.53 29.697L1014.48 30.5696H1008.63L1008.58 29.697L1010.71 29.4147C1010.71 29.2265 1010.72 28.7303 1010.74 27.9261C1010.75 27.1219 1010.76 26.1467 1010.76 25.0003V21.0222C1010.76 20.4575 1010.76 19.8587 1010.76 19.2256C1010.76 18.5925 1010.76 18.0279 1010.76 17.5317C1010.76 17.0355 1010.75 16.7189 1010.74 16.5821C1010.46 16.565 1010.15 16.5564 1009.81 16.5564C1009.47 16.5564 1009.2 16.5564 1009.02 16.5564H1007.99C1007.87 16.5564 1007.73 16.565 1007.58 16.5821C1007.44 16.5821 1007.32 16.5992 1007.22 16.6334L1006.09 19.5336L1005.17 19.3796L1005.73 15.4015C1005.94 15.4186 1006.12 15.4357 1006.27 15.4528C1006.44 15.4699 1006.59 15.487 1006.73 15.5041C1006.89 15.5041 1007.03 15.5041 1007.17 15.5041C1007.32 15.5041 1007.49 15.5041 1007.68 15.5041H1015.41C1015.59 15.5041 1015.76 15.5041 1015.89 15.5041C1016.05 15.5041 1016.19 15.5041 1016.33 15.5041C1016.47 15.487 1016.61 15.4699 1016.77 15.4528C1016.94 15.4357 1017.13 15.4186 1017.36 15.4015ZM1017.82 30.5696L1017.77 29.7484L1019.03 29.4147L1024.31 15.7864L1025.49 15.0421L1030.93 29.4147L1032.19 29.7484L1032.14 30.5696H1027.75L1027.7 29.7484L1029.24 29.4147L1027.67 25.3596L1027.39 24.6153L1024.47 17.198L1025.01 16.6077L1022.05 24.641L1021.77 25.4109L1020.33 29.4147L1021.87 29.7484L1021.82 30.5696H1017.82ZM1021.18 25.6419V24.4613C1021.51 24.4784 1021.99 24.4955 1022.62 24.5126C1023.25 24.5297 1024.01 24.5383 1024.9 24.5383C1025.78 24.5383 1026.53 24.5297 1027.16 24.5126C1027.79 24.4955 1028.26 24.4784 1028.57 24.4613V25.6419C1027.85 25.6248 1027.18 25.6162 1026.55 25.6162C1025.91 25.5991 1025.36 25.5906 1024.9 25.5906C1024.46 25.5906 1023.93 25.5991 1023.31 25.6162C1022.7 25.6162 1021.99 25.6248 1021.18 25.6419ZM1041.61 30.8006C1040.22 30.8006 1038.92 30.5183 1037.71 29.9537C1036.51 29.389 1035.54 28.5335 1034.78 27.3871C1034.05 26.2408 1033.68 24.8035 1033.68 23.0754C1033.68 22.083 1033.85 21.1248 1034.19 20.2009C1034.54 19.2598 1035.05 18.4214 1035.73 17.6857C1036.42 16.9499 1037.27 16.3682 1038.3 15.9404C1039.33 15.4956 1040.52 15.2731 1041.87 15.2731C1042.52 15.2731 1043.24 15.3416 1044.02 15.4785C1044.81 15.5982 1045.53 15.7864 1046.18 16.0431L1046.36 19.3539L1045.41 19.4566L1044.72 17.1467C1044.39 16.89 1043.92 16.7018 1043.3 16.5821C1042.71 16.4623 1042.15 16.4024 1041.64 16.4024C1040.22 16.4024 1039.06 16.7018 1038.17 17.3007C1037.3 17.8995 1036.67 18.6866 1036.27 19.6619C1035.88 20.6201 1035.68 21.6381 1035.68 22.7161C1035.68 24.2389 1035.95 25.5136 1036.48 26.5402C1037.03 27.5668 1037.75 28.3453 1038.66 28.8757C1039.58 29.389 1040.6 29.6457 1041.71 29.6457C1042.31 29.6457 1042.83 29.5944 1043.25 29.4917C1043.68 29.3719 1044.13 29.2008 1044.59 28.9784L1045.85 26.5145L1046.74 26.6172L1046.05 29.7484C1045.42 30.0392 1044.73 30.2873 1044 30.4926C1043.26 30.698 1042.47 30.8006 1041.61 30.8006ZM1060.17 15.4015L1060.73 19.3796L1059.81 19.5079L1058.7 16.6334C1058.6 16.5992 1058.46 16.5821 1058.29 16.5821C1058.12 16.565 1057.98 16.5564 1057.86 16.5564H1056.91C1056.74 16.5564 1056.48 16.5564 1056.14 16.5564C1055.79 16.5564 1055.48 16.565 1055.19 16.5821C1055.19 16.7189 1055.18 17.0355 1055.16 17.5317C1055.16 18.0279 1055.16 18.5925 1055.16 19.2256C1055.16 19.8587 1055.16 20.4575 1055.16 21.0222V25.0003C1055.16 26.1467 1055.17 27.1219 1055.19 27.9261C1055.2 28.7303 1055.21 29.2265 1055.21 29.4147L1057.34 29.697L1057.29 30.5696H1051.44L1051.39 29.697L1053.52 29.4147C1053.52 29.2265 1053.53 28.7303 1053.54 27.9261C1053.56 27.1219 1053.57 26.1467 1053.57 25.0003V21.0222C1053.57 20.4575 1053.57 19.8587 1053.57 19.2256C1053.57 18.5925 1053.57 18.0279 1053.57 17.5317C1053.57 17.0355 1053.56 16.7189 1053.54 16.5821C1053.27 16.565 1052.96 16.5564 1052.62 16.5564C1052.28 16.5564 1052.01 16.5564 1051.83 16.5564H1050.8C1050.68 16.5564 1050.54 16.565 1050.39 16.5821C1050.25 16.5821 1050.13 16.5992 1050.03 16.6334L1048.9 19.5336L1047.98 19.3796L1048.54 15.4015C1048.75 15.4186 1048.93 15.4357 1049.08 15.4528C1049.25 15.4699 1049.4 15.487 1049.54 15.5041C1049.7 15.5041 1049.84 15.5041 1049.98 15.5041C1050.13 15.5041 1050.3 15.5041 1050.49 15.5041H1058.22C1058.4 15.5041 1058.57 15.5041 1058.7 15.5041C1058.86 15.5041 1059 15.5041 1059.14 15.5041C1059.28 15.487 1059.42 15.4699 1059.58 15.4528C1059.75 15.4357 1059.94 15.4186 1060.17 15.4015Z" fill="black"/>
</svg>
